<svg width="512" height="512" viewBox="0 0 512 512" xmlns="http://www.w3.org/2000/svg">
  <rect width="512" height="512" rx="80" fill="#0C1E3C"/>
  <text x="28" y="74" font-family="Georgia,serif" font-size="56" font-weight="700" fill="#5DCAA5" opacity="0.60">&#x201C;</text>
  <text x="26" y="322" font-family="Georgia,serif" font-size="46" font-weight="700" fill="#5DCAA5" opacity="0.50">&#x201D;</text>
  <text x="26" y="490" font-family="Georgia,serif" font-size="52" font-weight="700" fill="#5DCAA5" opacity="0.55">&#x201C;</text>
  <text x="430" y="26" font-family="Georgia,serif" font-size="50" font-weight="700" fill="#5DCAA5" opacity="0.50">&#x201D;</text>
  <text x="454" y="290" font-family="Georgia,serif" font-size="54" font-weight="700" fill="#5DCAA5" opacity="0.55">&#x201C;</text>
  <text x="440" y="490" font-family="Georgia,serif" font-size="52" font-weight="700" fill="#5DCAA5" opacity="0.50">&#x201D;</text>
  <rect x="128" y="36" width="352" height="218" rx="38" fill="white"/>
  <polygon points="148,252 210,252 143,305" fill="white"/>
  <text x="168" y="202" font-family="Georgia,serif" font-size="158" font-weight="700" fill="#5DCAA5">&#x201C;</text>
  <text x="466" y="248" font-family="Georgia,serif" font-size="112" font-weight="700" fill="#9FE1CB" text-anchor="end">&#x201D;</text>
  <path d="M 168,353 C 192,342 222,360 225,385 C 225,398 215,408 212,418 C 210,428 228,430 235,438 C 238,445 222,452 215,460 C 214,466 212,472 210,478 C 208,485 204,492 198,512 L 250,512 L 0,512 L 0,490 C 22,482 50,476 76,470 C 96,465 115,458 117,444 C 119,428 117,410 114,394 C 111,378 108,365 110,356 C 112,347 126,340 143,338 C 157,336 163,343 168,353 Z" fill="white"/>
  <ellipse cx="100" cy="412" rx="18" ry="24" fill="white"/>
  <circle cx="218" cy="402" r="9" fill="#0C1E3C"/>
</svg>
